<svg width="0" height="0" class="hidden">
  <symbol version="1.1" id="networking" xmlns="http://www.w3.org/2000/svg" xmlns:xlink="http://www.w3.org/1999/xlink" x="0px" y="0px" xml:space="preserve" viewBox="0 0 489.99 489.99">
    <g>
      <path d="M107.261,342.857c27.183,0,49.296-21.97,49.296-48.97c0-27.001-22.113-48.961-49.296-48.961
		c-27.184,0-49.297,21.96-49.297,48.961C57.964,320.886,80.077,342.857,107.261,342.857z M107.261,265.776
		c15.684,0,28.446,12.614,28.446,28.11c0,15.506-12.762,28.119-28.446,28.119c-15.684,0-28.447-12.614-28.447-28.119
		C78.815,278.39,91.577,265.776,107.261,265.776z"></path>
      <path d="M333.433,293.886c0,27,22.113,48.97,49.297,48.97s49.297-21.97,49.297-48.97c0-27.001-22.113-48.961-49.297-48.961
		S333.433,266.886,333.433,293.886z M382.729,265.776c15.684,0,28.446,12.614,28.446,28.11c0,15.506-12.762,28.119-28.446,28.119
		s-28.446-12.614-28.446-28.119C354.283,278.39,367.045,265.776,382.729,265.776z"></path>
      <path d="M242.969,97.922c27.183,0,49.302-21.961,49.302-48.961S270.153,0,242.969,0c-27.184,0-49.297,21.961-49.297,48.961
		S215.785,97.922,242.969,97.922z M242.969,20.851c15.688,0,28.451,12.615,28.451,28.11s-12.763,28.11-28.451,28.11
		c-15.684,0-28.447-12.615-28.447-28.11S227.286,20.851,242.969,20.851z"></path>
      <path d="M433.624,368.745c-31.074-16.643-70.703-16.657-101.815,0.009c-5.911,3.17-15.052,9.113-24.265,18.324l-54.148-74.43
		v-67.771c30.585-1.023,60.734-6.535,89.755-16.456c4.169-1.426,6.989-5.315,7.056-9.713c0-0.051,0.025-1.139,0.025-1.191
		c0-20.404-9.606-68.658-56.357-93.696c-31.075-16.643-70.703-16.656-101.815,0.01c-15.832,8.491-54.837,36.848-56.327,94.725
		c-0.115,4.457,2.836,8.42,7.056,9.866c29.031,9.92,59.175,15.432,89.756,16.456v67.781l-52.291,71.862
		c-6.238-5.826-13.54-11.193-22.098-15.777c-31.075-16.643-70.703-16.657-101.815,0.009c-15.832,8.491-54.837,36.848-56.327,94.725
		c-0.115,4.457,2.836,8.419,7.056,9.865C39.394,484.39,73.098,489.99,107.25,489.99c34.157,0,67.866-5.599,100.181-16.645
		c4.169-1.426,6.989-5.315,7.056-9.713c0-0.051,0.025-1.139,0.025-1.191c0-13.399-4.144-38.81-20.23-61.769l48.692-66.906
		l50.891,69.943c-9.915,14.823-17.732,34.477-18.383,59.771c-0.115,4.457,2.836,8.419,7.056,9.865
		c32.325,11.046,66.029,16.645,100.182,16.645c34.157,0,67.866-5.599,100.181-16.645c4.169-1.426,6.989-5.315,7.056-9.713
		c0-0.051,0.025-1.139,0.025-1.191C489.98,442.037,480.374,393.783,433.624,368.745z M201.909,142.208
		c25.066-13.428,57.089-13.418,82.115-0.009c12.752,6.841,41.983,30.299,45.051,68.895c-55.812,17.429-116.461,17.429-172.273-0.021
		C162.103,168.455,189.167,149.04,201.909,142.208z M21.082,455.996c5.302-42.619,32.366-62.033,45.107-68.865
		c25.066-13.428,57.089-13.418,82.115-0.009c12.752,6.841,41.983,30.299,45.051,68.895
		C137.543,473.446,76.895,473.446,21.082,455.996z M296.551,455.996c5.302-42.619,32.366-62.033,45.108-68.865
		c25.066-13.428,57.089-13.418,82.115-0.009c12.752,6.841,41.983,30.299,45.051,68.895
		C413.012,473.446,352.363,473.446,296.551,455.996z"></path>
    </g>
    <g></g>
    <g></g>
    <g></g>
    <g></g>
    <g></g>
    <g></g>
    <g></g>
    <g></g>
    <g></g>
    <g></g>
    <g></g>
    <g></g>
    <g></g>
    <g></g>
    <g></g>
  </symbol>
  <symbol version="1.1" id="networking2" xmlns="http://www.w3.org/2000/svg" xmlns:xlink="http://www.w3.org/1999/xlink" x="0px" y="0px" xml:space="preserve" viewBox="0 0 489.801 489.801">
    <g>
      <g>
        <g>
          <path d="M91.4,354.95c-50.6,0-91.4,40.8-91.4,91.4c0,6.6,0.8,12.8,1.9,19.1c25.3,13.2,56,21,89.4,21s64.2-7.8,89.4-21
				c1.2-6.2,1.9-12.4,1.9-19.1C183.2,396.15,141.9,354.95,91.4,354.95z"></path>
          <circle cx="91.4" cy="285.65" r="48.2"></circle>
          <path d="M398.6,354.95c-50.6,0-91.4,40.8-91.4,91.4c0,6.6,0.8,12.8,1.9,19.1c25.3,13.2,56,21,89.4,21s64.2-7.8,89.4-21
				c1.2-6.2,1.9-12.4,1.9-19.1C490,396.15,449.2,354.95,398.6,354.95z"></path>
          <circle cx="398.6" cy="285.65" r="48.2"></circle>
          <path d="M245,252.65c33.4,0,64.2-7.8,89.4-21c1.2-6.2,1.9-12.4,1.9-19.1c0-50.6-40.8-91.4-91.4-91.4s-91.4,40.8-91.4,91.4
				c0,6.6,0.8,12.8,1.9,19.1C180.8,244.85,211.6,252.65,245,252.65z"></path>
          <circle cx="245" cy="51.55" r="48.2"></circle>
          <path d="M258.2,330.45v-55.7c0-5.5-4.5-10.2-10.1-10.1c-5.3,0.2-9.4,4.4-9.4,9.7v56l-44.7,44.3c-3.8,3.8-3.9,9.9-0.2,13.8
				c3.9,4,10.5,3.9,14.4-0.1l39.8-39.8l40.4,40c3.9,3.8,10.1,3.8,14,0l0,0c3.9-3.9,3.9-10.2,0-14L258.2,330.45z"></path>
        </g>
      </g>
    </g>
    <g></g>
    <g></g>
    <g></g>
    <g></g>
    <g></g>
    <g></g>
    <g></g>
    <g></g>
    <g></g>
    <g></g>
    <g></g>
    <g></g>
    <g></g>
    <g></g>
    <g></g>
  </symbol>
  <symbol version="1.1" id="play" xmlns="http://www.w3.org/2000/svg" xmlns:xlink="http://www.w3.org/1999/xlink" x="0px" y="0px" xml:space="preserve" viewBox="0 0 512 512">
    <g>
      <g>
        <path d="M421.227,0H90.773C40.72,0,0,40.72,0,90.773v330.454C0,471.28,40.72,512,90.773,512h330.454
			C471.28,512,512,471.28,512,421.227V90.773C512,40.72,471.28,0,421.227,0z M491.602,421.227c0,38.805-31.57,70.375-70.375,70.375
			H90.773c-38.805,0-70.374-31.57-70.374-70.375V90.773c0-38.805,31.57-70.375,70.374-70.375h330.454
			c38.805,0,70.375,31.57,70.375,70.375V421.227z"></path>
      </g>
    </g>
    <g>
      <g>
        <path d="M431.597,36.717h-20.569c-5.632,0-10.199,4.566-10.199,10.199c0,5.633,4.567,10.199,10.199,10.199h20.569
			c5.632,0,10.199-4.566,10.199-10.199C441.796,41.283,437.229,36.717,431.597,36.717z"></path>
      </g>
    </g>
    <g>
      <g>
        <path d="M368.191,36.717H80.403c-5.633,0-10.199,4.566-10.199,10.199c0,5.633,4.566,10.199,10.199,10.199h287.788
			c5.632,0,10.199-4.566,10.199-10.199C378.39,41.283,373.823,36.717,368.191,36.717z"></path>
      </g>
    </g>
    <g>
      <g>
        <path d="M369.383,223.81L186.154,99.9c-11.938-8.074-27.262-8.891-39.991-2.132c-12.729,6.759-20.636,19.91-20.636,34.321v247.82
			c0,14.411,7.907,27.563,20.636,34.321c5.733,3.043,11.991,4.551,18.23,4.551c7.614,0,15.199-2.246,21.761-6.682l183.229-123.91
			c10.702-7.237,17.092-19.27,17.092-32.19S380.085,231.048,369.383,223.81z M357.955,271.291l-183.23,123.91
			c-5.756,3.893-12.858,4.273-18.998,1.013c-6.139-3.259-9.803-9.355-9.803-16.304v-247.82c0-6.95,3.665-13.045,9.803-16.304
			c2.772-1.471,5.739-2.201,8.691-2.201c3.587,0,7.15,1.078,10.307,3.214l183.23,123.91c5.16,3.489,8.12,9.063,8.12,15.292
			C366.075,262.228,363.115,267.802,357.955,271.291z"></path>
      </g>
    </g>
    <g></g>
    <g></g>
    <g></g>
    <g></g>
    <g></g>
    <g></g>
    <g></g>
    <g></g>
    <g></g>
    <g></g>
    <g></g>
    <g></g>
    <g></g>
    <g></g>
    <g></g>
  </symbol>
  <symbol xmlns="http://www.w3.org/2000/svg" viewBox="0 0 1024 1024" id="line">
    <path d="M904 476H120c-4.4 0-8 3.6-8 8v56c0 4.4 3.6 8 8 8h784c4.4 0 8-3.6 8-8v-56c0-4.4-3.6-8-8-8z"></path>
  </symbol>
  <symbol xmlns="http://www.w3.org/2000/svg" preserveAspectRatio="xMinYMin" viewBox="-5 -7 24 24" id="menu">
    <path d="M1 0h5a1 1 0 1 1 0 2H1a1 1 0 1 1 0-2zm7 8h5a1 1 0 0 1 0 2H8a1 1 0 1 1 0-2zM1 4h12a1 1 0 0 1 0 2H1a1 1 0 1 1 0-2z"></path>
  </symbol>
  <symbol id="plus" xmlns="http://www.w3.org/2000/svg" viewBox="0 0 24 24">
    <rect id="view-box" width="24" height="24" fill="#141124" opacity="0"></rect>
    <path id="Shape" d="M5,10.75V6.5H.75A.75.75,0,0,1,.75,5H5V.75a.75.75,0,0,1,1.5,0V5h4.25a.75.75,0,1,1,0,1.5H6.5v4.25a.75.75,0,1,1-1.5,0Z" transform="translate(6 6)" fill="#141124"></path>
  </symbol>
  <symbol xmlns="http://www.w3.org/2000/svg" xml:space="preserve" viewBox="0 0 24 24" id="tiktok">
    <path d="M19.589 6.686a4.793 4.793 0 0 1-3.77-4.245V2h-3.445v13.672a2.896 2.896 0 0 1-5.201 1.743l-.002-.001.002.001a2.895 2.895 0 0 1 3.183-4.51v-3.5a6.329 6.329 0 0 0-5.394 10.692 6.33 6.33 0 0 0 10.857-4.424V8.687a8.182 8.182 0 0 0 4.773 1.526V6.79a4.831 4.831 0 0 1-1.003-.104z"></path>
  </symbol>
  <symbol version="1.1" id="chevron" xmlns="http://www.w3.org/2000/svg" xmlns:xlink="http://www.w3.org/1999/xlink" x="0px" y="0px" xml:space="preserve" viewBox="0 0 512 512">
    <path d="M507.344,154.765c-7.713-10.283-22.301-12.367-32.582-4.655L256.005,314.182L37.238,150.111
	c-10.283-7.713-24.869-5.626-32.582,4.655c-7.713,10.282-5.627,24.871,4.655,32.582l232.732,174.544
	c4.138,3.103,9.05,4.655,13.964,4.655c4.912,0,9.826-1.552,13.964-4.655l232.72-174.544
	C512.971,179.636,515.056,165.048,507.344,154.765z"></path>
    <g></g>
    <g></g>
    <g></g>
    <g></g>
    <g></g>
    <g></g>
    <g></g>
    <g></g>
    <g></g>
    <g></g>
    <g></g>
    <g></g>
    <g></g>
    <g></g>
    <g></g>
  </symbol>
  <symbol version="1.1" id="folder" xmlns="http://www.w3.org/2000/svg" xmlns:xlink="http://www.w3.org/1999/xlink" x="0px" y="0px" xml:space="preserve" viewBox="0 0 60 60">
    <path d="M26.515,10.5l-5-7H0v53h60v-37v-2v-7H26.515z M36.586,37.914L32,33.328V48.5h-4V33.328l-4.586,4.586l-2.828-2.828L30,25.672
	l9.414,9.414L36.586,37.914z M58,17.5H31.515l-3.571-5H58V17.5z"></path>
    <g></g>
    <g></g>
    <g></g>
    <g></g>
    <g></g>
    <g></g>
    <g></g>
    <g></g>
    <g></g>
    <g></g>
    <g></g>
    <g></g>
    <g></g>
    <g></g>
    <g></g>
  </symbol>
  <symbol version="1.1" id="puzzle" xmlns="http://www.w3.org/2000/svg" xmlns:xlink="http://www.w3.org/1999/xlink" x="0px" y="0px" xml:space="preserve" viewBox="0 0 219.948 219.948">
    <path color-rendering="auto" image-rendering="auto" shape-rendering="auto" color-interpolation="sRGB" d="M109.937,0
	c-8.736,0-17.473,3.237-24.224,9.711c-11.063,10.608-13.66,26.904-7.436,40.166l-48.248,0.006c-0.056-0.003-0.112-0.005-0.168-0.006
	c-2.759,0.042-4.963,2.311-4.924,5.07v160c0,2.761,2.239,5,5,5h160c2.761,0.039,5.032-2.168,5.07-4.93
	c0-0.024,0.001-0.048,0.001-0.073v-0.072l-0.01-57.422h-0.02c0.01-2.762-2.221-5.009-4.982-5.019
	c-1.234-0.005-2.426,0.447-3.347,1.269c-10.09,8.894-25.264,8.258-34.574-1.451c-9.309-9.709-9.309-24.897,0-34.606
	c9.31-9.709,24.483-10.347,34.574-1.453c2.06,1.84,5.221,1.662,7.061-0.398c0.823-0.921,1.276-2.114,1.271-3.349h0.03V54.948
	c0.04-2.818-2.255-5.111-5.072-5.07h-48.342c6.225-13.262,3.628-29.558-7.435-40.166C127.411,3.238,118.675,0,109.939,0L109.937,0z
	 M109.937,9.947c6.225,0,12.449,2.328,17.303,6.982c9.709,9.309,10.345,24.483,1.451,34.574c-1.859,2.042-1.712,5.205,0.33,7.064
	c0.933,0.85,2.154,1.315,3.416,1.303v0.006h52.573v43.404c-13.26-6.216-29.55-3.618-40.155,7.442
	c-6.473,6.751-9.709,15.488-9.709,24.225c0,8.736,3.236,17.473,9.709,24.225c10.603,11.057,26.888,13.655,40.147,7.443l0.01,43.332
	H34.939V59.883l52.493-0.006V59.83c2.762,0.01,5.008-2.221,5.018-4.983c0.004-1.232-0.447-2.423-1.266-3.343
	C82.29,41.413,82.928,26.24,92.637,16.93c4.854-4.655,11.078-6.982,17.302-6.982L109.937,9.947z"></path>
    <g></g>
    <g></g>
    <g></g>
    <g></g>
    <g></g>
    <g></g>
    <g></g>
    <g></g>
    <g></g>
    <g></g>
    <g></g>
    <g></g>
    <g></g>
    <g></g>
    <g></g>
  </symbol>
  <symbol fill="none" xmlns="http://www.w3.org/2000/svg" viewBox="0 0 15 15" id="dotted">
    <path fill-rule="evenodd" clip-rule="evenodd" d="M1.5 6.625C1.01675 6.625 0.625 7.01675 0.625 7.5C0.625 7.98325 1.01675 8.375 1.5 8.375C1.98325 8.375 2.375 7.98325 2.375 7.5C2.375 7.01675 1.98325 6.625 1.5 6.625ZM5.5 6.625C5.01675 6.625 4.625 7.01675 4.625 7.5C4.625 7.98325 5.01675 8.375 5.5 8.375C5.98325 8.375 6.375 7.98325 6.375 7.5C6.375 7.01675 5.98325 6.625 5.5 6.625ZM9.5 6.625C9.01675 6.625 8.625 7.01675 8.625 7.5C8.625 7.98325 9.01675 8.375 9.5 8.375C9.98325 8.375 10.375 7.98325 10.375 7.5C10.375 7.01675 9.98325 6.625 9.5 6.625ZM12.625 7.5C12.625 7.01675 13.0168 6.625 13.5 6.625C13.9832 6.625 14.375 7.01675 14.375 7.5C14.375 7.98325 13.9832 8.375 13.5 8.375C13.0168 8.375 12.625 7.98325 12.625 7.5Z" fill="currentColor"></path>
  </symbol>
  <symbol version="1.1" id="twitter" xmlns="http://www.w3.org/2000/svg" xmlns:xlink="http://www.w3.org/1999/xlink" x="0px" y="0px" xml:space="preserve" viewBox="0 0 310 310">
    <g id="XMLID_826_">
      <path id="XMLID_827_" d="M302.973,57.388c-4.87,2.16-9.877,3.983-14.993,5.463c6.057-6.85,10.675-14.91,13.494-23.73
		c0.632-1.977-0.023-4.141-1.648-5.434c-1.623-1.294-3.878-1.449-5.665-0.39c-10.865,6.444-22.587,11.075-34.878,13.783
		c-12.381-12.098-29.197-18.983-46.581-18.983c-36.695,0-66.549,29.853-66.549,66.547c0,2.89,0.183,5.764,0.545,8.598
		C101.163,99.244,58.83,76.863,29.76,41.204c-1.036-1.271-2.632-1.956-4.266-1.825c-1.635,0.128-3.104,1.05-3.93,2.467
		c-5.896,10.117-9.013,21.688-9.013,33.461c0,16.035,5.725,31.249,15.838,43.137c-3.075-1.065-6.059-2.396-8.907-3.977
		c-1.529-0.851-3.395-0.838-4.914,0.033c-1.52,0.871-2.473,2.473-2.513,4.224c-0.007,0.295-0.007,0.59-0.007,0.889
		c0,23.935,12.882,45.484,32.577,57.229c-1.692-0.169-3.383-0.414-5.063-0.735c-1.732-0.331-3.513,0.276-4.681,1.597
		c-1.17,1.32-1.557,3.16-1.018,4.84c7.29,22.76,26.059,39.501,48.749,44.605c-18.819,11.787-40.34,17.961-62.932,17.961
		c-4.714,0-9.455-0.277-14.095-0.826c-2.305-0.274-4.509,1.087-5.294,3.279c-0.785,2.193,0.047,4.638,2.008,5.895
		c29.023,18.609,62.582,28.445,97.047,28.445c67.754,0,110.139-31.95,133.764-58.753c29.46-33.421,46.356-77.658,46.356-121.367
		c0-1.826-0.028-3.67-0.084-5.508c11.623-8.757,21.63-19.355,29.773-31.536c1.237-1.85,1.103-4.295-0.33-5.998
		C307.394,57.037,305.009,56.486,302.973,57.388z"></path>
    </g>
    <g></g>
    <g></g>
    <g></g>
    <g></g>
    <g></g>
    <g></g>
    <g></g>
    <g></g>
    <g></g>
    <g></g>
    <g></g>
    <g></g>
    <g></g>
    <g></g>
    <g></g>
  </symbol>
  <symbol version="1.1" id="ladder" xmlns="http://www.w3.org/2000/svg" xmlns:xlink="http://www.w3.org/1999/xlink" x="0px" y="0px" xml:space="preserve" viewBox="0 0 512 512">
    <g>
      <g>
        <path d="M406.905,0c-16.345,0-29.642,13.297-29.642,29.642v45.811H134.737V29.642C134.737,13.297,121.44,0,105.095,0
			C88.75,0,75.453,13.297,75.453,29.642v452.716c0,16.345,13.297,29.642,29.642,29.642c16.345,0,29.642-13.297,29.642-29.642
			v-45.811h242.526v45.811c0,16.345,13.297,29.642,29.642,29.642c16.345,0,29.642-13.297,29.642-29.642V29.642
			C436.547,13.297,423.25,0,406.905,0z M118.568,482.358c0,7.43-6.044,13.474-13.474,13.474s-13.474-6.044-13.474-13.474V29.642
			c0-7.43,6.044-13.474,13.474-13.474s13.474,6.044,13.474,13.474V482.358z M377.263,420.379H134.737v-26.947h242.526V420.379z
			 M377.263,377.263H134.737v-91.621h242.526V377.263z M377.263,269.474H134.737v-26.947h242.526V269.474z M377.263,118.568H338.1
			c-4.465,0-8.084,3.62-8.084,8.084c0,4.465,3.62,8.084,8.084,8.084h39.163v91.621H134.737v-91.621h171.342
			c4.465,0,8.084-3.62,8.084-8.084c0-4.465-3.62-8.084-8.084-8.084H134.737V91.621h242.526V118.568z M420.379,482.358
			c0,7.43-6.044,13.474-13.474,13.474s-13.474-6.044-13.474-13.474V29.642c0-7.43,6.044-13.474,13.474-13.474
			s13.474,6.044,13.474,13.474V482.358z"></path>
      </g>
    </g>
    <g></g>
    <g></g>
    <g></g>
    <g></g>
    <g></g>
    <g></g>
    <g></g>
    <g></g>
    <g></g>
    <g></g>
    <g></g>
    <g></g>
    <g></g>
    <g></g>
    <g></g>
  </symbol>
  <symbol version="1.1" id="compass" xmlns="http://www.w3.org/2000/svg" xmlns:xlink="http://www.w3.org/1999/xlink" x="0px" y="0px" xml:space="preserve" viewBox="0 0 492.308 492.308">
    <g>
      <g>
        <path d="M246.154,0C110.423,0,0,110.423,0,246.154s110.423,246.154,246.154,246.154s246.154-110.423,246.154-246.154
			S381.885,0,246.154,0z M246.154,472.615c-124.875,0-226.462-101.587-226.462-226.462S121.279,19.692,246.154,19.692
			s226.462,101.587,226.462,226.462S371.029,472.615,246.154,472.615z"></path>
      </g>
    </g>
    <g>
      <g>
        <rect x="236.308" y="46.484" width="19.692" height="36.037"></rect>
      </g>
    </g>
    <g>
      <g>
        <rect x="409.797" y="236.308" width="36.037" height="19.692"></rect>
      </g>
    </g>
    <g>
      <g>
        <rect x="236.308" y="409.797" width="19.692" height="36.037"></rect>
      </g>
    </g>
    <g>
      <g>
        <rect x="46.484" y="236.308" width="36.027" height="19.692"></rect>
      </g>
    </g>
    <g>
      <g>
        <path d="M203.125,203.115l-73.404,159.481l159.471-73.404l73.404-159.462L203.125,203.115z M274.346,274.346l-104.452,48.077
			l48.077-104.462l104.452-48.077L274.346,274.346z"></path>
      </g>
    </g>
    <g></g>
    <g></g>
    <g></g>
    <g></g>
    <g></g>
    <g></g>
    <g></g>
    <g></g>
    <g></g>
    <g></g>
    <g></g>
    <g></g>
    <g></g>
    <g></g>
    <g></g>
  </symbol>
  <symbol version="1.1" id="message" xmlns="http://www.w3.org/2000/svg" xmlns:xlink="http://www.w3.org/1999/xlink" x="0px" y="0px" xml:space="preserve" viewBox="0 0 60 60">
    <g>
      <path d="M54.072,2.535L19.93,2.465c-3.27,0-5.93,2.66-5.93,5.93v5.124l-8.07,0.017c-3.27,0-5.93,2.66-5.93,5.93v21.141
		c0,3.27,2.66,5.93,5.929,5.93H12v10c0,0.413,0.254,0.784,0.639,0.933c0.118,0.046,0.24,0.067,0.361,0.067
		c0.276,0,0.547-0.114,0.74-0.327l9.704-10.675l16.626-0.068c3.27,0,5.93-2.66,5.93-5.93v-0.113l5.26,5.786
		c0.193,0.213,0.464,0.327,0.74,0.327c0.121,0,0.243-0.021,0.36-0.067c0.386-0.148,0.64-0.52,0.64-0.933v-10h1.07
		c3.27,0,5.93-2.66,5.93-5.93V8.465C60,5.195,57.341,2.536,54.072,2.535z M44,40.535c0,2.167-1.763,3.93-3.934,3.93l-17.07,0.07
		c-0.281,0.001-0.547,0.12-0.736,0.327L14,53.948v-8.413c0-0.553-0.448-1-1-1H5.929C3.763,44.535,2,42.772,2,40.605V19.465
		c0-2.167,1.763-3.93,3.932-3.93l9.068-0.019c0,0,0,0,0,0s0.002,0,0.002,0l24.87-0.051l0.198,0c2.167,0,3.93,1.763,3.93,3.93v18.44
		V40.535z M58,29.605c0,2.167-1.763,3.93-3.93,3.93H52c-0.553,0-1,0.447-1,1v8.413l-5-5.5V19.395v-0.001
		c0-3.27-2.66-5.929-5.931-5.929h0l0,0l-0.104,0L16,13.514v-5.12c0-2.167,1.763-3.93,3.928-3.93l34.141,0.07
		c0.001,0,0.001,0,0.002,0c2.167,0,3.93,1.763,3.93,3.93V29.605z"></path>
      <path d="M12,26.449c-2.206,0-4,1.794-4,4s1.794,4,4,4s4-1.794,4-4S14.206,26.449,12,26.449z M12,32.449c-1.103,0-2-0.897-2-2
		s0.897-2,2-2s2,0.897,2,2S13.103,32.449,12,32.449z"></path>
      <path d="M23,26.449c-2.206,0-4,1.794-4,4s1.794,4,4,4s4-1.794,4-4S25.206,26.449,23,26.449z M23,32.449c-1.103,0-2-0.897-2-2
		s0.897-2,2-2s2,0.897,2,2S24.103,32.449,23,32.449z"></path>
      <path d="M34,26.449c-2.206,0-4,1.794-4,4s1.794,4,4,4s4-1.794,4-4S36.206,26.449,34,26.449z M34,32.449c-1.103,0-2-0.897-2-2
		s0.897-2,2-2s2,0.897,2,2S35.103,32.449,34,32.449z"></path>
    </g>
    <g></g>
    <g></g>
    <g></g>
    <g></g>
    <g></g>
    <g></g>
    <g></g>
    <g></g>
    <g></g>
    <g></g>
    <g></g>
    <g></g>
    <g></g>
    <g></g>
    <g></g>
  </symbol>
  <symbol version="1.1" id="ipad" xmlns="http://www.w3.org/2000/svg" xmlns:xlink="http://www.w3.org/1999/xlink" x="0px" y="0px" xml:space="preserve" viewBox="0 0 60 60">
    <g>
      <g>
        <path d="M55.822,9H4.178C1.875,9,0,10.875,0,13.178v33.644C0,49.125,1.875,51,4.178,51h51.644C58.125,51,60,49.125,60,46.822
			V13.178C60,10.875,58.125,9,55.822,9z M55.822,49H4.178C2.977,49,2,48.023,2,46.822V13.178C2,11.977,2.977,11,4.178,11h51.644
			C57.023,11,58,11.977,58,13.178v13.378C57.409,26.212,56.732,26,56,26s-1.409,0.212-2,0.556V14H6v32h48V33.444
			C54.591,33.788,55.268,34,56,34s1.409-0.212,2-0.556v13.378C58,48.023,57.023,49,55.822,49z M52,44H8V16h44V44z M58,30
			c0,1.103-0.897,2-2,2s-2-0.897-2-2s0.897-2,2-2S58,28.897,58,30z"></path>
        <circle cx="4" cy="30" r="1"></circle>
        <path d="M11,24c0.256,0,0.512-0.098,0.707-0.293l4-4c0.391-0.391,0.391-1.023,0-1.414s-1.023-0.391-1.414,0l-4,4
			c-0.391,0.391-0.391,1.023,0,1.414C10.488,23.902,10.744,24,11,24z"></path>
        <path d="M11,29c0.256,0,0.512-0.098,0.707-0.293l2-2c0.391-0.391,0.391-1.023,0-1.414s-1.023-0.391-1.414,0l-2,2
			c-0.391,0.391-0.391,1.023,0,1.414C10.488,28.902,10.744,29,11,29z"></path>
        <path d="M14.29,23.29C14.11,23.48,14,23.73,14,24s0.11,0.52,0.29,0.71C14.48,24.89,14.74,25,15,25s0.52-0.11,0.71-0.29
			C15.89,24.52,16,24.26,16,24s-0.11-0.52-0.29-0.71C15.33,22.92,14.66,22.92,14.29,23.29z"></path>
        <path d="M16.293,22.707C16.488,22.902,16.744,23,17,23s0.512-0.098,0.707-0.293l3-3c0.391-0.391,0.391-1.023,0-1.414
			s-1.023-0.391-1.414,0l-3,3C15.902,21.684,15.902,22.316,16.293,22.707z"></path>
        <path d="M11,34c0.256,0,0.512-0.098,0.707-0.293l9-9c0.391-0.391,0.391-1.023,0-1.414s-1.023-0.391-1.414,0l-9,9
			c-0.391,0.391-0.391,1.023,0,1.414C10.488,33.902,10.744,34,11,34z"></path>
        <path d="M21.29,22.71C21.48,22.89,21.74,23,22,23s0.52-0.11,0.71-0.29C22.89,22.52,23,22.26,23,22s-0.11-0.52-0.29-0.71
			c-0.38-0.37-1.05-0.37-1.42,0C21.11,21.48,21,21.74,21,22S21.11,22.52,21.29,22.71z"></path>
        <path d="M24,21c0.256,0,0.512-0.098,0.707-0.293l1-1c0.391-0.391,0.391-1.023,0-1.414s-1.023-0.391-1.414,0l-1,1
			c-0.391,0.391-0.391,1.023,0,1.414C23.488,20.902,23.744,21,24,21z"></path>
      </g>
    </g>
    <g></g>
    <g></g>
    <g></g>
    <g></g>
    <g></g>
    <g></g>
    <g></g>
    <g></g>
    <g></g>
    <g></g>
    <g></g>
    <g></g>
    <g></g>
    <g></g>
    <g></g>
  </symbol>
  <symbol version="1.1" id="facebook" xmlns="http://www.w3.org/2000/svg" xmlns:xlink="http://www.w3.org/1999/xlink" x="0px" y="0px" xml:space="preserve" viewBox="0 0 310 310">
    <g id="XMLID_834_">
      <path id="XMLID_835_" d="M81.703,165.106h33.981V305c0,2.762,2.238,5,5,5h57.616c2.762,0,5-2.238,5-5V165.765h39.064
		c2.54,0,4.677-1.906,4.967-4.429l5.933-51.502c0.163-1.417-0.286-2.836-1.234-3.899c-0.949-1.064-2.307-1.673-3.732-1.673h-44.996
		V71.978c0-9.732,5.24-14.667,15.576-14.667c1.473,0,29.42,0,29.42,0c2.762,0,5-2.239,5-5V5.037c0-2.762-2.238-5-5-5h-40.545
		C187.467,0.023,186.832,0,185.896,0c-7.035,0-31.488,1.381-50.804,19.151c-21.402,19.692-18.427,43.27-17.716,47.358v37.752H81.703
		c-2.762,0-5,2.238-5,5v50.844C76.703,162.867,78.941,165.106,81.703,165.106z"></path>
    </g>
    <g></g>
    <g></g>
    <g></g>
    <g></g>
    <g></g>
    <g></g>
    <g></g>
    <g></g>
    <g></g>
    <g></g>
    <g></g>
    <g></g>
    <g></g>
    <g></g>
    <g></g>
  </symbol>
  <symbol version="1.1" id="linkedin" xmlns="http://www.w3.org/2000/svg" xmlns:xlink="http://www.w3.org/1999/xlink" x="0px" y="0px" xml:space="preserve" viewBox="0 0 455 455">
    <g>
      <path d="M246.4,204.35v-0.665c-0.136,0.223-0.324,0.446-0.442,0.665H246.4z"></path>
      <path d="M0,0v455h455V0H0z M141.522,378.002H74.016V174.906h67.506V378.002z
		 M107.769,147.186h-0.446C84.678,147.186,70,131.585,70,112.085c0-19.928,15.107-35.087,38.211-35.087
		c23.109,0,37.31,15.159,37.752,35.087C145.963,131.585,131.32,147.186,107.769,147.186z M385,378.002h-67.524V269.345
		c0-27.291-9.756-45.92-34.195-45.92c-18.664,0-29.755,12.543-34.641,24.693c-1.776,4.34-2.24,10.373-2.24,16.459v113.426h-67.537
		c0,0,0.905-184.043,0-203.096H246.4v28.779c8.973-13.807,24.986-33.547,60.856-33.547c44.437,0,77.744,29.02,77.744,91.398V378.002
		z"></path>
    </g>
    <g></g>
    <g></g>
    <g></g>
    <g></g>
    <g></g>
    <g></g>
    <g></g>
    <g></g>
    <g></g>
    <g></g>
    <g></g>
    <g></g>
    <g></g>
    <g></g>
    <g></g>
  </symbol>
  <symbol version="1.1" id="instagram" xmlns="http://www.w3.org/2000/svg" xmlns:xlink="http://www.w3.org/1999/xlink" x="0px" y="0px" xml:space="preserve" viewBox="0 0 300 300">
    <g id="XMLID_504_">
      <path id="XMLID_505_" d="M38.52,0.012h222.978C282.682,0.012,300,17.336,300,38.52v222.978c0,21.178-17.318,38.49-38.502,38.49
		H38.52c-21.184,0-38.52-17.313-38.52-38.49V38.52C0,17.336,17.336,0.012,38.52,0.012z M218.546,33.329
		c-7.438,0-13.505,6.091-13.505,13.525v32.314c0,7.437,6.067,13.514,13.505,13.514h33.903c7.426,0,13.506-6.077,13.506-13.514
		V46.854c0-7.434-6.08-13.525-13.506-13.525H218.546z M266.084,126.868h-26.396c2.503,8.175,3.86,16.796,3.86,25.759
		c0,49.882-41.766,90.34-93.266,90.34c-51.487,0-93.254-40.458-93.254-90.34c0-8.963,1.37-17.584,3.861-25.759H33.35v126.732
		c0,6.563,5.359,11.902,11.916,11.902h208.907c6.563,0,11.911-5.339,11.911-11.902V126.868z M150.283,90.978
		c-33.26,0-60.24,26.128-60.24,58.388c0,32.227,26.98,58.375,60.24,58.375c33.278,0,60.259-26.148,60.259-58.375
		C210.542,117.105,183.561,90.978,150.283,90.978z"></path>
    </g>
    <g></g>
    <g></g>
    <g></g>
    <g></g>
    <g></g>
    <g></g>
    <g></g>
    <g></g>
    <g></g>
    <g></g>
    <g></g>
    <g></g>
    <g></g>
    <g></g>
    <g></g>
  </symbol>
  <symbol version="1.1" id="youtube" xmlns="http://www.w3.org/2000/svg" xmlns:xlink="http://www.w3.org/1999/xlink" x="0px" y="0px" xml:space="preserve" viewBox="0 0 310 310">
    <g id="XMLID_822_">
      <path id="XMLID_823_" d="M297.917,64.645c-11.19-13.302-31.85-18.728-71.306-18.728H83.386c-40.359,0-61.369,5.776-72.517,19.938
		C0,79.663,0,100.008,0,128.166v53.669c0,54.551,12.896,82.248,83.386,82.248h143.226c34.216,0,53.176-4.788,65.442-16.527
		C304.633,235.518,310,215.863,310,181.835v-53.669C310,98.471,309.159,78.006,297.917,64.645z M199.021,162.41l-65.038,33.991
		c-1.454,0.76-3.044,1.137-4.632,1.137c-1.798,0-3.592-0.484-5.181-1.446c-2.992-1.813-4.819-5.056-4.819-8.554v-67.764
		c0-3.492,1.822-6.732,4.808-8.546c2.987-1.814,6.702-1.938,9.801-0.328l65.038,33.772c3.309,1.718,5.387,5.134,5.392,8.861
		C204.394,157.263,202.325,160.684,199.021,162.41z"></path>
    </g>
    <g></g>
    <g></g>
    <g></g>
    <g></g>
    <g></g>
    <g></g>
    <g></g>
    <g></g>
    <g></g>
    <g></g>
    <g></g>
    <g></g>
    <g></g>
    <g></g>
    <g></g>
  </symbol>
</svg>